<svg xmlns="http://www.w3.org/2000/svg" viewBox="0 0 108.99 120"><defs><style>.cls-1{fill:#fff;}.cls-2{fill:#050510;}</style></defs><title>Asset 5</title><g id="Layer_2" data-name="Layer 2"><g id="Layer_1-2" data-name="Layer 1"><polygon class="cls-1" points="30.14 115 5.77 72.8 30.14 30.61 78.86 30.61 103.22 72.8 78.86 115 30.14 115"/><path class="cls-2" d="M76,35.61,97.45,72.8,76,110H33L11.55,72.8,33,35.61H76m5.78-10H27.25l-2.89,5L2.89,67.8,0,72.8l2.89,5L24.36,115l2.89,5h54.5l2.88-5,21.48-37.2,2.88-5-2.88-5L84.63,30.61l-2.88-5Z"/><polygon class="cls-2" points="39.42 113.5 25.68 72.8 39.42 32.11 69.57 32.11 83.31 72.8 69.57 113.5 39.42 113.5"/><path class="cls-2" d="M67.06,35.61,79.62,72.8,67.06,110H41.94L29.38,72.8,41.94,35.61H67.06m5-7H36.91L35.3,33.37,22.74,70.56,22,72.8,22.74,75l12.56,37.2L36.91,117H72.08l1.61-4.76L86.25,75,87,72.8l-.76-2.24L73.69,33.37l-1.61-4.76Z"/><polygon class="cls-1" points="12.91 5 43.38 5 45.78 13.53 63.21 13.53 65.61 5 96.09 5 78.24 58.42 30.75 58.43 12.91 5"/><path class="cls-2" d="M89.15,10,74.64,53.42H34.35L19.85,10H39.6L42,18.53H67L69.4,10H89.15M103,0H61.82l-2,7.29-.35,1.24H49.57l-.35-1.24L47.17,0H6l4.39,13.17L24.87,56.6l2.28,6.83h54.7l2.28-6.83,14.5-43.42L103,0Z"/></g></g></svg>